<?xml version="1.0" encoding="utf-8"?>
<!-- Generator: Adobe Illustrator 24.1.2, SVG Export Plug-In . SVG Version: 6.00 Build 0)  -->
<svg version="1.1" id="Layer_1" xmlns="http://www.w3.org/2000/svg" xmlns:xlink="http://www.w3.org/1999/xlink" x="0px" y="0px"
	 viewBox="0 0 350 100" style="enable-background:new 0 0 350 100;" xml:space="preserve">
<style type="text/css">
	.st0{
		fill:none;
		stroke:#006838;
		stroke-width:5;
		stroke-linecap:round;
		stroke-miterlimit:10;
	}
</style>
<g id="0to1">
	<path class="st0" d="M82.73,87.68c38.44-38.09,67.38-30.91,69.9,0"/>
	<line class="st0" x1="145.73" y1="82.56" x2="152.63" y2="87.68"/>
	<line class="st0" x1="156.97" y1="79.24" x2="152.63" y2="87.68"/>
</g>
<g id="1to0">
	<path class="st0" d="M178.43,87.02C140.4,28.09,70.76,45.94,69.71,87.11"/>
	<line class="st0" x1="79.53" y1="79.81" x2="69.71" y2="87.11"/>
	<line class="st0" x1="63.58" y1="78.23" x2="69.71" y2="87.11"/>
</g>
<g id="2to0">
	<path class="st0" d="M310.73,87.46C253.54-4.69,68.01,12.62,44.15,87.68"/>
	<line class="st0" x1="58.53" y1="80.69" x2="44.15" y2="87.68"/>
	<line class="st0" x1="37.48" y1="74.71" x2="44.15" y2="87.68"/>
</g>
<g id="0to2">
	<path class="st0" d="M12.55,87.42C81.27-23.3,304.18-2.5,332.85,87.68"/>
	<line class="st0" x1="315.57" y1="79.28" x2="332.85" y2="87.68"/>
	<line class="st0" x1="340.86" y1="72.1" x2="332.85" y2="87.68"/>
</g>
<g id="1to2">
	<path class="st0" d="M178.78,87.14c38.04-58.92,107.67-41.08,108.72,0.09"/>
	<line class="st0" x1="277.68" y1="79.94" x2="287.5" y2="87.23"/>
	<line class="st0" x1="293.63" y1="78.35" x2="287.5" y2="87.23"/>
</g>
<g id="2to1">
	<path class="st0" d="M273.44,88.2c-38.44-38.09-67.38-30.91-69.9,0"/>
	<line class="st0" x1="210.45" y1="83.08" x2="203.55" y2="88.2"/>
	<line class="st0" x1="199.21" y1="79.77" x2="203.55" y2="88.2"/>
</g>
</svg>
